<?xml version="1.0" encoding="UTF-8"?>
<svg width="110px" height="73px" viewBox="0 0 110 73" version="1.1" xmlns="http://www.w3.org/2000/svg" xmlns:xlink="http://www.w3.org/1999/xlink">
    <!-- Generator: Sketch 48.2 (47327) - http://www.bohemiancoding.com/sketch -->
    <title>Shape</title>
    <desc>Created with Sketch.</desc>
    <defs></defs>
    <g id="Desktop-HD" stroke="none" stroke-width="1" fill="none" fill-rule="evenodd" transform="translate(-668.000000, -1218.000000)">
        <g id="social-2322133" transform="translate(332.000000, 1077.000000)" fill="#000000" fill-rule="nonzero">
            <path d="M347.385288,152.218288 C340.689994,158.913582 336.928735,167.994425 336.929,177.463 C336.928735,186.931575 340.689994,196.012418 347.385288,202.707712 C354.080582,209.403006 363.161425,213.164265 372.63,213.164 C392.345785,213.162343 408.327552,197.178785 408.327,177.463 C408.311867,175.947537 408.200248,174.434576 407.99282,172.9333 L371.63482,172.9333 L371.63482,186.4403 L390.65882,186.4403 C387.255656,193.285541 380.274343,197.617834 372.62982,197.6283 C361.492998,197.6283 352.46482,188.600122 352.46482,177.4633 C352.46482,166.326478 361.492998,157.2983 372.62982,157.2983 C377.048834,157.307169 381.342587,158.767382 384.85082,161.4544 L397.00782,151.4184 C390.400884,145.223838 381.686535,141.771915 372.62982,141.7618 C363.161425,141.761735 354.080582,145.522994 347.385288,152.218288 Z M425.035,162.652 L425.035,171.877 L415.8104,171.877 L415.8104,183.527 L425.035,183.527 L425.035,192.7517 L436.685,192.7517 L436.685,183.527 L445.9059,183.527 L445.9059,171.877 L436.685,171.877 L436.685,162.652 L425.035,162.652 Z" id="Shape"></path>
        </g>
    </g>
</svg>