<?xml version="1.0" encoding="UTF-8"?>
<svg width="74px" height="74px" viewBox="0 0 74 74" version="1.1" xmlns="http://www.w3.org/2000/svg" xmlns:xlink="http://www.w3.org/1999/xlink">
    <!-- Generator: Sketch 48.2 (47327) - http://www.bohemiancoding.com/sketch -->
    <title>Shape</title>
    <desc>Created with Sketch.</desc>
    <defs></defs>
    <g id="Desktop-HD" stroke="none" stroke-width="1" fill="none" fill-rule="evenodd" transform="translate(-686.000000, -1080.000000)">
        <g id="social-2322133" transform="translate(332.000000, 1077.000000)" fill="#000000" fill-rule="nonzero">
            <path d="M376.95,3.92 C364.755,3.92 354.937,13.7382 354.937,25.933 L354.937,54.866 C354.937,67.061 364.7552,76.877 376.95,76.877 L405.88,76.877 C418.076,76.877 427.893,67.0614 427.893,54.866 L427.893,25.933 C427.893,13.738 418.0753,3.92 405.88,3.92 L376.95,3.92 Z M379.4033,10.1092 L403.4263,10.1092 C413.5523,10.1092 421.7033,18.2604 421.7033,28.3872 L421.7033,52.4102 C421.7033,62.5362 413.5522,70.6902 403.4263,70.6902 L379.4033,70.6902 C369.2773,70.6902 361.1263,62.5364 361.1263,52.4102 L361.1263,28.3872 C361.1263,18.2612 369.2774,10.1092 379.4033,10.1092 Z M410.6303,16.6231 C407.933089,16.6238176 405.746762,18.8101891 405.7461,21.5074 C405.745755,22.8031152 406.260145,24.0458982 407.176111,24.962351 C408.092076,25.8788038 409.334585,26.3938553 410.6303,26.3942 C411.926535,26.3946511 413.169815,25.8799509 414.086429,24.9634119 C415.003043,24.0468728 415.517845,22.803635 415.5175,21.5074 C415.517182,20.2115982 415.002087,18.9690027 414.085545,18.0530044 C413.169003,17.1370061 411.926102,16.6226491 410.6303,16.6231 Z M391.7403,20.8575 C386.643553,20.8572348 381.75548,22.881792 378.151536,26.4857361 C374.547592,30.0896802 372.523035,34.9777534 372.5233,40.0745 C372.523565,45.1709001 374.548357,50.0584595 378.152243,53.661971 C381.75613,57.2654825 386.6439,59.2897652 391.7403,59.2895 C396.8367,59.2897652 401.72447,57.2654825 405.328357,53.661971 C408.932243,50.0584595 410.957035,45.1709001 410.9573,40.0745 C410.957565,34.9777534 408.933008,30.0896802 405.329064,26.4857361 C401.72512,22.881792 396.837047,20.8572348 391.7403,20.8575 Z M391.7403,28.9988 C394.677481,28.9990652 397.494242,30.1661785 399.570861,32.2433601 C401.64748,34.3205418 402.81383,37.1376193 402.8133,40.0748 C402.812748,46.1900203 397.85552,51.1472478 391.7403,51.1478 C385.62508,51.1472478 380.667852,46.1900203 380.6673,40.0748 C380.66677,37.1376193 381.83312,34.3205418 383.909739,32.2433601 C385.986358,30.1661785 388.803119,28.9990652 391.7403,28.9988 Z" id="Shape"></path>
        </g>
    </g>
</svg>