<?xml version="1.0" encoding="UTF-8"?>
<svg width="72px" height="68px" viewBox="0 0 72 68" version="1.1" xmlns="http://www.w3.org/2000/svg" xmlns:xlink="http://www.w3.org/1999/xlink">
    <!-- Generator: Sketch 48.2 (47327) - http://www.bohemiancoding.com/sketch -->
    <title>Shape</title>
    <desc>Created with Sketch.</desc>
    <defs></defs>
    <g id="Desktop-HD" stroke="none" stroke-width="1" fill="none" fill-rule="evenodd" transform="translate(-334.000000, -1198.000000)">
        <g id="social-2322133" transform="translate(332.000000, 1077.000000)" fill="#000000" fill-rule="nonzero">
            <path d="M11.209,121.138 C6.1653,121.137881 2.0764,125.2262 2.0759,130.2699 C2.075736,135.314 6.1649,139.4032 11.209,139.4031 C16.2527,139.402443 20.341,135.3136 20.3409,130.2699 C20.3409,125.2267 16.2522,121.1386 11.209,121.138 Z M55.568,142.01 C50.3838,142.0173 45.6607,144.3809 42.521,148.179 L42.521,142.662 L25.56,142.662 L25.56,188.979 L42.521,188.979 L42.521,174.138 C42.56784,166.9107 40.9541,156.086 49.9653,154.655 C59.1513,155.43254 56.8596,164.0748 56.8596,173.189 L56.8596,188.979 L73.8206,188.979 L73.8206,158.869 C73.8206,158.869 73.8166,158.869192 73.8166,158.8617 C73.7593,149.5435 64.8984,142.0067 55.5666,142.0067 L55.568,142.01 Z M3.38,142.66457 L3.38,188.98157 L20.341,188.98157 L20.341,142.66457 L3.38,142.66457 Z" id="Shape"></path>
        </g>
    </g>
</svg>