<?xml version="1.0" encoding="UTF-8"?>
<svg width="54px" height="68px" viewBox="0 0 54 68" version="1.1" xmlns="http://www.w3.org/2000/svg" xmlns:xlink="http://www.w3.org/1999/xlink">
    <!-- Generator: Sketch 48.2 (47327) - http://www.bohemiancoding.com/sketch -->
    <title>Shape</title>
    <desc>Created with Sketch.</desc>
    <defs></defs>
    <g id="Desktop-HD" stroke="none" stroke-width="1" fill="none" fill-rule="evenodd" transform="translate(-526.000000, -1202.000000)">
        <g id="social-2322133" transform="translate(332.000000, 1077.000000)" fill="#000000" fill-rule="nonzero">
            <path d="M221.65,125.052 C215.2951,124.94934 208.94,126.6754 202.586,131.9635 C196.2753,137.4659 194.37,144.2215 195.0874,153.0435 C197.122,163.9325 200.5311,163.3975 203.8593,164.7865 C207.2559,163.7005 207.7899,159.6338 206.5473,157.854 C206.5473,157.854 202.0364,154.2744 202.0725,147.398 C205.4845,138.0238 210.9729,129.654 226.0715,130.498 C253.9695,138.0177 235.0087,179.757 219.5213,161.591 L220.6951,157.1465 C221.31882,153.1774 228.9889,145.9295 222.7877,141.7995 C208.4037,134.3124 211.8457,156.7855 211.8457,156.7855 L205.9812,180.2075 L206.97152,192.5165 L214.04552,182.3295 L217.30392,169.9895 C218.41202,170.97444 219.59832,171.7653 220.83652,172.4256 C241.39652,177.2097 251.70052,157.9876 246.16152,140.5926 C242.74482,132.8533 235.28852,125.6386 221.65052,125.0506 L221.65,125.052 Z" id="Shape"></path>
        </g>
    </g>
</svg>