<?xml version="1.0" encoding="UTF-8"?>
<svg width="66px" height="51px" viewBox="0 0 66 51" version="1.1" xmlns="http://www.w3.org/2000/svg" xmlns:xlink="http://www.w3.org/1999/xlink">
    <!-- Generator: Sketch 48.2 (47327) - http://www.bohemiancoding.com/sketch -->
    <title>Shape</title>
    <desc>Created with Sketch.</desc>
    <defs></defs>
    <g id="Desktop-HD" stroke="none" stroke-width="1" fill="none" fill-rule="evenodd" transform="translate(-520.000000, -1092.000000)">
        <g id="social-2322133" transform="translate(332.000000, 1077.000000)" fill="#000000" fill-rule="nonzero">
            <path d="M232.1647,15.1782 C230.0069,15.41259 227.9147,16.2212 226.157,17.4946 C224.3993,18.768 222.9798,20.5033 222.0748,22.4761 C220.956,24.9149 220.6357,27.6416 220.5364,30.3229 C220.5304,30.49162 220.5304,30.66071 220.5245,30.82951 C210.4635,29.91298 201.8415,24.10101 193.8095,16.28651 C192.83709,22.39921 190.2503,28.42251 198.7611,35.06151 C196.4916,34.32255 194.2218,33.99631 191.9523,31.96651 C191.46028,41.91431 198.126,43.58451 203.7123,46.92551 C201.1746,46.89141 198.6743,47.04315 195.8722,45.68721 C196.0079,49.23281 201.6145,53.21871 207.6682,57.05321 C201.8843,60.26571 194.7942,61.08381 188.4442,59.20151 C196.3106,63.81931 205.5362,66.08891 214.6472,65.64871 C218.7886,65.44856 222.9243,64.6943 226.7762,63.15971 C230.6279,61.62501 234.1919,59.29221 236.9432,56.19011 C241.1233,51.47631 243.2139,45.29311 244.7703,39.18811 C245.58027,36.01101 246.2774,32.77231 246.258,29.49361 C246.254,29.14084 246.2427,28.78709 246.2224,28.43361 L253.126,22.27021 L245.3892,22.88909 L249.7219,17.83429 L243.4502,20.10109 C242.1852,18.39299 240.4715,17.02039 238.5268,16.16209 C237.0376,15.50482 235.4175,15.14859 233.7901,15.11049 C233.24758,15.0973 232.7042,15.12 232.1647,15.1782 Z" id="Shape"></path>
        </g>
    </g>
</svg>